<svg xmlns="http://www.w3.org/2000/svg" viewBox="0 0 64 64" role="img" aria-label="考研刷题">
  <rect width="64" height="64" rx="14" fill="#356fe5"/>
  <!-- 摊开的书：左右两页 -->
  <path d="M32 20.5c-4.2-2.6-9.1-3.9-14.6-3.9-1.5 0-2.9.1-4.2.3v27.8c1.3-.2 2.7-.3 4.2-.3 5.5 0 10.4 1.3 14.6 3.9V20.5z"
        fill="#ffffff"/>
  <path d="M32 20.5c4.2-2.6 9.1-3.9 14.6-3.9 1.5 0 2.9.1 4.2.3v27.8c-1.3-.2-2.7-.3-4.2-.3-5.5 0-10.4 1.3-14.6 3.9V20.5z"
        fill="#ffffff" opacity=".82"/>
  <!-- 中缝 -->
  <path d="M32 20.5v27.8" stroke="#356fe5" stroke-width="2.2" stroke-linecap="round"/>
  <!-- 右侧对勾 -->
  <path d="M38.5 33.5l4.6 4.6 9-9.6" fill="none" stroke="#356fe5" stroke-width="3.4"
        stroke-linecap="round" stroke-linejoin="round"/>
</svg>
